QuixoticSeven-SemiboldItalic.ufo
<glyph name="exclam" format="2">
  <advance width="583"/>
  <unicode hex="0021"/>
  <outline>
    <contour>
      <point x="513.0" y="0.0" type="curve" smooth="yes"/>
      <point x="511.0" y="39.0"/>
      <point x="540.0" y="70.0"/>
      <point x="579.0" y="70.0" type="curve" smooth="yes"/>
      <point x="618.0" y="70.0"/>
      <point x="651.0" y="39.0"/>
      <point x="653.0" y="0.0" type="curve" smooth="yes"/>
      <point x="655.0" y="-39.0"/>
      <point x="626.0" y="-70.0"/>
      <point x="587.0" y="-70.0" type="curve" smooth="yes"/>
      <point x="548.0" y="-70.0"/>
      <point x="515.0" y="-39.0"/>
    </contour>
    <contour>
      <point x="470.0" y="52.0" type="line" smooth="yes"/>
      <point x="392.0" y="126.0" type="line" smooth="yes"/>
      <point x="383.0" y="312.0" type="line" smooth="yes"/>
      <point x="453.0" y="386.0" type="line" smooth="yes"/>
      <point x="493.0" y="348.0" type="line" smooth="yes"/>
      <point x="506.0" y="90.0" type="line" smooth="yes"/>
    </contour>
    <contour>
      <point x="451.0" y="414.0" type="line" smooth="yes"/>
      <point x="373.0" y="488.0" type="line" smooth="yes"/>
      <point x="364.0" y="674.0" type="line" smooth="yes"/>
      <point x="434.0" y="748.0" type="line" smooth="yes"/>
      <point x="474.0" y="710.0" type="line" smooth="yes"/>
      <point x="487.0" y="452.0" type="line" smooth="yes"/>
    </contour>
  </outline>
</glyph>
<glyph name="quotedbl" format="2">
  <advance width="583"/>
  <unicode hex="0022"/>
  <outline>
    <contour>
      <point x="123.0" y="414.0" type="line" smooth="yes"/>
      <point x="89.0" y="452.0" type="line" smooth="yes"/>
      <point x="103.0" y="710.0" type="line" smooth="yes"/>
      <point x="140.0" y="748.0" type="line" smooth="yes"/>
      <point x="205.0" y="674.0" type="line" smooth="yes"/>
      <point x="195.0" y="488.0" type="line" smooth="yes"/>
    </contour>
    <contour>
      <point x="454.0" y="414.0" type="line" smooth="yes"/>
      <point x="389.0" y="488.0" type="line" smooth="yes"/>
      <point x="398.0" y="674.0" type="line" smooth="yes"/>
      <point x="471.0" y="748.0" type="line" smooth="yes"/>
      <point x="504.0" y="710.0" type="line" smooth="yes"/>
      <point x="491.0" y="452.0" type="line" smooth="yes"/>
    </contour>
  </outline>
</glyph>
<glyph name="ampersand" format="2">
  <advance width="583"/>
  <unicode hex="0026"/>
  <outline>
    <contour>
      <point x="134.0" y="400.0" type="line" smooth="yes"/>
      <point x="189.0" y="456.0" type="line" smooth="yes"/>
      <point x="396.0" y="456.0" type="line" smooth="yes"/>
      <point x="445.0" y="400.0" type="line" smooth="yes"/>
      <point x="390.0" y="344.0" type="line" smooth="yes"/>
      <point x="183.0" y="344.0" type="line" smooth="yes"/>
    </contour>
    <contour>
      <point x="435.0" y="52.0" type="line" smooth="yes"/>
      <point x="370.0" y="126.0" type="line" smooth="yes"/>
      <point x="379.0" y="312.0" type="line" smooth="yes"/>
      <point x="452.0" y="386.0" type="line" smooth="yes"/>
      <point x="485.0" y="348.0" type="line" smooth="yes"/>
      <point x="472.0" y="90.0" type="line" smooth="yes"/>
    </contour>
    <contour>
      <point x="454.0" y="414.0" type="line" smooth="yes"/>
      <point x="389.0" y="488.0" type="line" smooth="yes"/>
      <point x="398.0" y="674.0" type="line" smooth="yes"/>
      <point x="471.0" y="748.0" type="line" smooth="yes"/>
      <point x="504.0" y="710.0" type="line" smooth="yes"/>
      <point x="491.0" y="452.0" type="line" smooth="yes"/>
    </contour>
  </outline>
</glyph>
<glyph name="quotesingle" format="2">
  <advance width="583"/>
  <unicode hex="0027"/>
  <outline>
    <contour>
      <point x="123.0" y="414.0" type="line" smooth="yes"/>
      <point x="89.0" y="452.0" type="line" smooth="yes"/>
      <point x="103.0" y="710.0" type="line" smooth="yes"/>
      <point x="140.0" y="748.0" type="line" smooth="yes"/>
      <point x="205.0" y="674.0" type="line" smooth="yes"/>
      <point x="195.0" y="488.0" type="line" smooth="yes"/>
    </contour>
  </outline>
</glyph>
<glyph name="parenleft" format="2">
  <advance width="583"/>
  <unicode hex="0028"/>
  <outline>
    <contour>
      <point x="132.0" y="414.0" type="line" smooth="yes"/>
      <point x="96.0" y="452.0" type="line" smooth="yes"/>
      <point x="109.0" y="710.0" type="line" smooth="yes"/>
      <point x="149.0" y="748.0" type="line" smooth="yes"/>
      <point x="219.0" y="674.0" type="line" smooth="yes"/>
      <point x="210.0" y="488.0" type="line" smooth="yes"/>
    </contour>
    <contour>
      <point x="113.0" y="52.0" type="line" smooth="yes"/>
      <point x="77.0" y="90.0" type="line" smooth="yes"/>
      <point x="90.0" y="348.0" type="line" smooth="yes"/>
      <point x="130.0" y="386.0" type="line" smooth="yes"/>
      <point x="200.0" y="312.0" type="line" smooth="yes"/>
      <point x="191.0" y="126.0" type="line" smooth="yes"/>
    </contour>
    <contour>
      <point x="126.0" y="38.0" type="line" smooth="yes"/>
      <point x="204.0" y="112.0" type="line" smooth="yes"/>
      <point x="391.0" y="112.0" type="line" smooth="yes"/>
      <point x="461.0" y="38.0" type="line" smooth="yes"/>
      <point x="421.0" y="0.0" type="line" smooth="yes"/>
      <point x="162.0" y="0.0" type="line" smooth="yes"/>
    </contour>
    <contour>
      <point x="499.0" y="762.0" type="line" smooth="yes"/>
      <point x="421.0" y="688.0" type="line" smooth="yes"/>
      <point x="234.0" y="688.0" type="line" smooth="yes"/>
      <point x="164.0" y="762.0" type="line" smooth="yes"/>
      <point x="204.0" y="800.0" type="line" smooth="yes"/>
      <point x="463.0" y="800.0" type="line" smooth="yes"/>
    </contour>
  </outline>
</glyph>
<glyph name="asterisk" format="2">
  <advance width="583"/>
  <unicode hex="002A"/>
  <outline>
    <contour>
      <point x="88.0" y="414.0" type="line" smooth="yes"/>
      <point x="48.0" y="452.0" type="line" smooth="yes"/>
      <point x="35.0" y="710.0" type="line" smooth="yes"/>
      <point x="71.0" y="748.0" type="line" smooth="yes"/>
      <point x="149.0" y="674.0" type="line" smooth="yes"/>
      <point x="158.0" y="488.0" type="line" smooth="yes"/>
    </contour>
    <contour>
      <point x="419.0" y="762.0" type="line" smooth="yes"/>
      <point x="349.0" y="688.0" type="line" smooth="yes"/>
      <point x="162.0" y="688.0" type="line" smooth="yes"/>
      <point x="84.0" y="762.0" type="line" smooth="yes"/>
      <point x="120.0" y="800.0" type="line" smooth="yes"/>
      <point x="379.0" y="800.0" type="line" smooth="yes"/>
    </contour>
  </outline>
</glyph>
<glyph name="comma" format="2">
  <advance width="583"/>
  <unicode hex="002C"/>
  <outline>
    <contour>
      <point x="113.0" y="52.0" type="line" smooth="yes"/>
      <point x="77.0" y="90.0" type="line" smooth="yes"/>
      <point x="90.0" y="348.0" type="line" smooth="yes"/>
      <point x="130.0" y="386.0" type="line" smooth="yes"/>
      <point x="200.0" y="312.0" type="line" smooth="yes"/>
      <point x="191.0" y="126.0" type="line" smooth="yes"/>
    </contour>
  </outline>
</glyph>
<glyph name="hyphen" format="2">
  <advance width="583"/>
  <unicode hex="002D"/>
  <outline>
    <contour>
      <point x="134.0" y="400.0" type="line" smooth="yes"/>
      <point x="189.0" y="456.0" type="line" smooth="yes"/>
      <point x="396.0" y="456.0" type="line" smooth="yes"/>
      <point x="445.0" y="400.0" type="line" smooth="yes"/>
      <point x="390.0" y="344.0" type="line" smooth="yes"/>
      <point x="183.0" y="344.0" type="line" smooth="yes"/>
    </contour>
  </outline>
</glyph>
<glyph name="period" format="2">
  <unicode hex="002E"/>
  <outline>
    <contour>
      <point x="-70.0" y="0.0" type="curve" smooth="yes"/>
      <point x="-72.0" y="39.0"/>
      <point x="-43.0" y="70.0"/>
      <point x="-4.0" y="70.0" type="curve" smooth="yes"/>
      <point x="35.0" y="70.0"/>
      <point x="68.0" y="39.0"/>
      <point x="70.0" y="0.0" type="curve" smooth="yes"/>
      <point x="72.0" y="-39.0"/>
      <point x="43.0" y="-70.0"/>
      <point x="4.0" y="-70.0" type="curve" smooth="yes"/>
      <point x="-35.0" y="-70.0"/>
      <point x="-68.0" y="-39.0"/>
    </contour>
  </outline>
</glyph>
<glyph name="one" format="2">
  <advance width="583"/>
  <unicode hex="0031"/>
  <outline>
    <contour>
      <point x="476.0" y="52.0" type="line" smooth="yes"/>
      <point x="406.0" y="126.0" type="line" smooth="yes"/>
      <point x="415.0" y="312.0" type="line" smooth="yes"/>
      <point x="493.0" y="386.0" type="line" smooth="yes"/>
      <point x="529.0" y="348.0" type="line" smooth="yes"/>
      <point x="516.0" y="90.0" type="line" smooth="yes"/>
    </contour>
    <contour>
      <point x="495.0" y="414.0" type="line" smooth="yes"/>
      <point x="425.0" y="488.0" type="line" smooth="yes"/>
      <point x="434.0" y="674.0" type="line" smooth="yes"/>
      <point x="512.0" y="748.0" type="line" smooth="yes"/>
      <point x="548.0" y="710.0" type="line" smooth="yes"/>
      <point x="535.0" y="452.0" type="line" smooth="yes"/>
    </contour>
  </outline>
</glyph>
<glyph name="three" format="2">
  <advance width="583"/>
  <unicode hex="0033"/>
  <outline>
    <contour>
      <point x="145.0" y="400.0" type="line" smooth="yes"/>
      <point x="204.0" y="456.0" type="line" smooth="yes"/>
      <point x="427.0" y="456.0" type="line" smooth="yes"/>
      <point x="480.0" y="400.0" type="line" smooth="yes"/>
      <point x="421.0" y="344.0" type="line" smooth="yes"/>
      <point x="198.0" y="344.0" type="line" smooth="yes"/>
    </contour>
    <contour>
      <point x="126.0" y="38.0" type="line" smooth="yes"/>
      <point x="204.0" y="112.0" type="line" smooth="yes"/>
      <point x="391.0" y="112.0" type="line" smooth="yes"/>
      <point x="461.0" y="38.0" type="line" smooth="yes"/>
      <point x="421.0" y="0.0" type="line" smooth="yes"/>
      <point x="162.0" y="0.0" type="line" smooth="yes"/>
    </contour>
    <contour>
      <point x="476.0" y="52.0" type="line" smooth="yes"/>
      <point x="406.0" y="126.0" type="line" smooth="yes"/>
      <point x="415.0" y="312.0" type="line" smooth="yes"/>
      <point x="493.0" y="386.0" type="line" smooth="yes"/>
      <point x="529.0" y="348.0" type="line" smooth="yes"/>
      <point x="516.0" y="90.0" type="line" smooth="yes"/>
    </contour>
    <contour>
      <point x="495.0" y="414.0" type="line" smooth="yes"/>
      <point x="425.0" y="488.0" type="line" smooth="yes"/>
      <point x="434.0" y="674.0" type="line" smooth="yes"/>
      <point x="512.0" y="748.0" type="line" smooth="yes"/>
      <point x="548.0" y="710.0" type="line" smooth="yes"/>
      <point x="535.0" y="452.0" type="line" smooth="yes"/>
    </contour>
    <contour>
      <point x="499.0" y="762.0" type="line" smooth="yes"/>
      <point x="421.0" y="688.0" type="line" smooth="yes"/>
      <point x="234.0" y="688.0" type="line" smooth="yes"/>
      <point x="164.0" y="762.0" type="line" smooth="yes"/>
      <point x="204.0" y="800.0" type="line" smooth="yes"/>
      <point x="463.0" y="800.0" type="line" smooth="yes"/>
    </contour>
  </outline>
</glyph>
<glyph name="seven" format="2">
  <advance width="583"/>
  <unicode hex="0037"/>
  <outline>
    <contour>
      <point x="435.0" y="52.0" type="line" smooth="yes"/>
      <point x="370.0" y="126.0" type="line" smooth="yes"/>
      <point x="379.0" y="312.0" type="line" smooth="yes"/>
      <point x="452.0" y="386.0" type="line" smooth="yes"/>
      <point x="485.0" y="348.0" type="line" smooth="yes"/>
      <point x="472.0" y="90.0" type="line" smooth="yes"/>
    </contour>
    <contour>
      <point x="454.0" y="414.0" type="line" smooth="yes"/>
      <point x="389.0" y="488.0" type="line" smooth="yes"/>
      <point x="398.0" y="674.0" type="line" smooth="yes"/>
      <point x="471.0" y="748.0" type="line" smooth="yes"/>
      <point x="504.0" y="710.0" type="line" smooth="yes"/>
      <point x="491.0" y="452.0" type="line" smooth="yes"/>
    </contour>
    <contour>
      <point x="464.0" y="762.0" type="line" smooth="yes"/>
      <point x="392.0" y="688.0" type="line" smooth="yes"/>
      <point x="218.0" y="688.0" type="line" smooth="yes"/>
      <point x="153.0" y="762.0" type="line" smooth="yes"/>
      <point x="190.0" y="800.0" type="line" smooth="yes"/>
      <point x="431.0" y="800.0" type="line" smooth="yes"/>
    </contour>
  </outline>
</glyph>
<glyph name="colon" format="2">
  <advance width="194"/>
  <unicode hex="003A"/>
  <outline>
    <contour>
      <point x="-19.0" y="240.0" type="curve" smooth="yes"/>
      <point x="-17.0" y="279.0"/>
      <point x="14.0" y="310.0"/>
      <point x="50.0" y="310.0" type="curve" smooth="yes"/>
      <point x="86.0" y="310.0"/>
      <point x="113.0" y="279.0"/>
      <point x="111.0" y="240.0" type="curve" smooth="yes"/>
      <point x="109.0" y="201.0"/>
      <point x="78.0" y="170.0"/>
      <point x="42.0" y="170.0" type="curve" smooth="yes"/>
      <point x="6.0" y="170.0"/>
      <point x="-21.0" y="201.0"/>
    </contour>
    <contour>
      <point x="-19.0" y="560.0" type="curve" smooth="yes"/>
      <point x="-17.0" y="599.0"/>
      <point x="14.0" y="630.0"/>
      <point x="50.0" y="630.0" type="curve" smooth="yes"/>
      <point x="86.0" y="630.0"/>
      <point x="113.0" y="599.0"/>
      <point x="111.0" y="560.0" type="curve" smooth="yes"/>
      <point x="109.0" y="521.0"/>
      <point x="78.0" y="490.0"/>
      <point x="42.0" y="490.0" type="curve" smooth="yes"/>
      <point x="6.0" y="490.0"/>
      <point x="-21.0" y="521.0"/>
    </contour>
  </outline>
</glyph>
<glyph name="less" format="2">
  <advance width="583"/>
  <unicode hex="003C"/>
  <outline>
    <contour>
      <point x="103.0" y="400.0" type="line" smooth="yes"/>
      <point x="156.0" y="456.0" type="line" smooth="yes"/>
      <point x="379.0" y="456.0" type="line" smooth="yes"/>
      <point x="438.0" y="400.0" type="line" smooth="yes"/>
      <point x="385.0" y="344.0" type="line" smooth="yes"/>
      <point x="162.0" y="344.0" type="line" smooth="yes"/>
    </contour>
    <contour>
      <point x="88.0" y="414.0" type="line" smooth="yes"/>
      <point x="48.0" y="452.0" type="line" smooth="yes"/>
      <point x="35.0" y="710.0" type="line" smooth="yes"/>
      <point x="71.0" y="748.0" type="line" smooth="yes"/>
      <point x="149.0" y="674.0" type="line" smooth="yes"/>
      <point x="158.0" y="488.0" type="line" smooth="yes"/>
    </contour>
    <contour>
      <point x="419.0" y="762.0" type="line" smooth="yes"/>
      <point x="349.0" y="688.0" type="line" smooth="yes"/>
      <point x="162.0" y="688.0" type="line" smooth="yes"/>
      <point x="84.0" y="762.0" type="line" smooth="yes"/>
      <point x="120.0" y="800.0" type="line" smooth="yes"/>
      <point x="379.0" y="800.0" type="line" smooth="yes"/>
    </contour>
  </outline>
</glyph>
<glyph name="equal" format="2">
  <advance width="583"/>
  <unicode hex="003D"/>
  <outline>
    <contour>
      <point x="134.0" y="400.0" type="line" smooth="yes"/>
      <point x="189.0" y="456.0" type="line" smooth="yes"/>
      <point x="396.0" y="456.0" type="line" smooth="yes"/>
      <point x="445.0" y="400.0" type="line" smooth="yes"/>
      <point x="390.0" y="344.0" type="line" smooth="yes"/>
      <point x="183.0" y="344.0" type="line" smooth="yes"/>
    </contour>
    <contour>
      <point x="115.0" y="38.0" type="line" smooth="yes"/>
      <point x="188.0" y="112.0" type="line" smooth="yes"/>
      <point x="361.0" y="112.0" type="line" smooth="yes"/>
      <point x="426.0" y="38.0" type="line" smooth="yes"/>
      <point x="389.0" y="0.0" type="line" smooth="yes"/>
      <point x="148.0" y="0.0" type="line" smooth="yes"/>
    </contour>
  </outline>
</glyph>
<glyph name="greater" format="2">
  <advance width="583"/>
  <unicode hex="003E"/>
  <outline>
    <contour>
      <point x="134.0" y="400.0" type="line" smooth="yes"/>
      <point x="189.0" y="456.0" type="line" smooth="yes"/>
      <point x="396.0" y="456.0" type="line" smooth="yes"/>
      <point x="445.0" y="400.0" type="line" smooth="yes"/>
      <point x="390.0" y="344.0" type="line" smooth="yes"/>
      <point x="183.0" y="344.0" type="line" smooth="yes"/>
    </contour>
    <contour>
      <point x="454.0" y="414.0" type="line" smooth="yes"/>
      <point x="389.0" y="488.0" type="line" smooth="yes"/>
      <point x="398.0" y="674.0" type="line" smooth="yes"/>
      <point x="471.0" y="748.0" type="line" smooth="yes"/>
      <point x="504.0" y="710.0" type="line" smooth="yes"/>
      <point x="491.0" y="452.0" type="line" smooth="yes"/>
    </contour>
    <contour>
      <point x="464.0" y="762.0" type="line" smooth="yes"/>
      <point x="392.0" y="688.0" type="line" smooth="yes"/>
      <point x="218.0" y="688.0" type="line" smooth="yes"/>
      <point x="153.0" y="762.0" type="line" smooth="yes"/>
      <point x="190.0" y="800.0" type="line" smooth="yes"/>
      <point x="431.0" y="800.0" type="line" smooth="yes"/>
    </contour>
  </outline>
</glyph>
<glyph name="B" format="2">
  <advance width="583"/>
  <unicode hex="0042"/>
  <outline>
    <contour>
      <point x="134.0" y="400.0" type="line" smooth="yes"/>
      <point x="189.0" y="456.0" type="line" smooth="yes"/>
      <point x="396.0" y="456.0" type="line" smooth="yes"/>
      <point x="445.0" y="400.0" type="line" smooth="yes"/>
      <point x="390.0" y="344.0" type="line" smooth="yes"/>
      <point x="183.0" y="344.0" type="line" smooth="yes"/>
    </contour>
    <contour>
      <point x="123.0" y="414.0" type="line" smooth="yes"/>
      <point x="89.0" y="452.0" type="line" smooth="yes"/>
      <point x="103.0" y="710.0" type="line" smooth="yes"/>
      <point x="140.0" y="748.0" type="line" smooth="yes"/>
      <point x="205.0" y="674.0" type="line" smooth="yes"/>
      <point x="195.0" y="488.0" type="line" smooth="yes"/>
    </contour>
    <contour>
      <point x="104.0" y="52.0" type="line" smooth="yes"/>
      <point x="70.0" y="90.0" type="line" smooth="yes"/>
      <point x="84.0" y="348.0" type="line" smooth="yes"/>
      <point x="121.0" y="386.0" type="line" smooth="yes"/>
      <point x="186.0" y="312.0" type="line" smooth="yes"/>
      <point x="176.0" y="126.0" type="line" smooth="yes"/>
    </contour>
    <contour>
      <point x="115.0" y="38.0" type="line" smooth="yes"/>
      <point x="188.0" y="112.0" type="line" smooth="yes"/>
      <point x="361.0" y="112.0" type="line" smooth="yes"/>
      <point x="426.0" y="38.0" type="line" smooth="yes"/>
      <point x="389.0" y="0.0" type="line" smooth="yes"/>
      <point x="148.0" y="0.0" type="line" smooth="yes"/>
    </contour>
    <contour>
      <point x="435.0" y="52.0" type="line" smooth="yes"/>
      <point x="370.0" y="126.0" type="line" smooth="yes"/>
      <point x="379.0" y="312.0" type="line" smooth="yes"/>
      <point x="452.0" y="386.0" type="line" smooth="yes"/>
      <point x="485.0" y="348.0" type="line" smooth="yes"/>
      <point x="472.0" y="90.0" type="line" smooth="yes"/>
    </contour>
  </outline>
</glyph>
<glyph name="L" format="2">
  <advance width="583"/>
  <unicode hex="004C"/>
  <outline>
    <contour>
      <point x="88.0" y="414.0" type="line" smooth="yes"/>
      <point x="48.0" y="452.0" type="line" smooth="yes"/>
      <point x="35.0" y="710.0" type="line" smooth="yes"/>
      <point x="71.0" y="748.0" type="line" smooth="yes"/>
      <point x="149.0" y="674.0" type="line" smooth="yes"/>
      <point x="158.0" y="488.0" type="line" smooth="yes"/>
    </contour>
    <contour>
      <point x="107.0" y="52.0" type="line" smooth="yes"/>
      <point x="67.0" y="90.0" type="line" smooth="yes"/>
      <point x="54.0" y="348.0" type="line" smooth="yes"/>
      <point x="90.0" y="386.0" type="line" smooth="yes"/>
      <point x="168.0" y="312.0" type="line" smooth="yes"/>
      <point x="177.0" y="126.0" type="line" smooth="yes"/>
    </contour>
    <contour>
      <point x="122.0" y="38.0" type="line" smooth="yes"/>
      <point x="192.0" y="112.0" type="line" smooth="yes"/>
      <point x="379.0" y="112.0" type="line" smooth="yes"/>
      <point x="457.0" y="38.0" type="line" smooth="yes"/>
      <point x="421.0" y="0.0" type="line" smooth="yes"/>
      <point x="162.0" y="0.0" type="line" smooth="yes"/>
    </contour>
  </outline>
</glyph>
<glyph name="P" format="2">
  <advance width="583"/>
  <unicode hex="0050"/>
  <outline>
    <contour>
      <point x="145.0" y="400.0" type="line" smooth="yes"/>
      <point x="204.0" y="456.0" type="line" smooth="yes"/>
      <point x="427.0" y="456.0" type="line" smooth="yes"/>
      <point x="480.0" y="400.0" type="line" smooth="yes"/>
      <point x="421.0" y="344.0" type="line" smooth="yes"/>
      <point x="198.0" y="344.0" type="line" smooth="yes"/>
    </contour>
    <contour>
      <point x="132.0" y="414.0" type="line" smooth="yes"/>
      <point x="96.0" y="452.0" type="line" smooth="yes"/>
      <point x="109.0" y="710.0" type="line" smooth="yes"/>
      <point x="149.0" y="748.0" type="line" smooth="yes"/>
      <point x="219.0" y="674.0" type="line" smooth="yes"/>
      <point x="210.0" y="488.0" type="line" smooth="yes"/>
    </contour>
    <contour>
      <point x="113.0" y="52.0" type="line" smooth="yes"/>
      <point x="77.0" y="90.0" type="line" smooth="yes"/>
      <point x="90.0" y="348.0" type="line" smooth="yes"/>
      <point x="130.0" y="386.0" type="line" smooth="yes"/>
      <point x="200.0" y="312.0" type="line" smooth="yes"/>
      <point x="191.0" y="126.0" type="line" smooth="yes"/>
    </contour>
    <contour>
      <point x="495.0" y="414.0" type="line" smooth="yes"/>
      <point x="425.0" y="488.0" type="line" smooth="yes"/>
      <point x="434.0" y="674.0" type="line" smooth="yes"/>
      <point x="512.0" y="748.0" type="line" smooth="yes"/>
      <point x="548.0" y="710.0" type="line" smooth="yes"/>
      <point x="535.0" y="452.0" type="line" smooth="yes"/>
    </contour>
    <contour>
      <point x="499.0" y="762.0" type="line" smooth="yes"/>
      <point x="421.0" y="688.0" type="line" smooth="yes"/>
      <point x="234.0" y="688.0" type="line" smooth="yes"/>
      <point x="164.0" y="762.0" type="line" smooth="yes"/>
      <point x="204.0" y="800.0" type="line" smooth="yes"/>
      <point x="463.0" y="800.0" type="line" smooth="yes"/>
    </contour>
  </outline>
</glyph>
<glyph name="R" format="2">
  <advance width="583"/>
  <unicode hex="0052"/>
  <outline>
    <contour>
      <point x="88.0" y="414.0" type="line" smooth="yes"/>
      <point x="48.0" y="452.0" type="line" smooth="yes"/>
      <point x="35.0" y="710.0" type="line" smooth="yes"/>
      <point x="71.0" y="748.0" type="line" smooth="yes"/>
      <point x="149.0" y="674.0" type="line" smooth="yes"/>
      <point x="158.0" y="488.0" type="line" smooth="yes"/>
    </contour>
    <contour>
      <point x="107.0" y="52.0" type="line" smooth="yes"/>
      <point x="67.0" y="90.0" type="line" smooth="yes"/>
      <point x="54.0" y="348.0" type="line" smooth="yes"/>
      <point x="90.0" y="386.0" type="line" smooth="yes"/>
      <point x="168.0" y="312.0" type="line" smooth="yes"/>
      <point x="177.0" y="126.0" type="line" smooth="yes"/>
    </contour>
    <contour>
      <point x="451.0" y="414.0" type="line" smooth="yes"/>
      <point x="373.0" y="488.0" type="line" smooth="yes"/>
      <point x="364.0" y="674.0" type="line" smooth="yes"/>
      <point x="434.0" y="748.0" type="line" smooth="yes"/>
      <point x="474.0" y="710.0" type="line" smooth="yes"/>
      <point x="487.0" y="452.0" type="line" smooth="yes"/>
    </contour>
    <contour>
      <point x="419.0" y="762.0" type="line" smooth="yes"/>
      <point x="349.0" y="688.0" type="line" smooth="yes"/>
      <point x="162.0" y="688.0" type="line" smooth="yes"/>
      <point x="84.0" y="762.0" type="line" smooth="yes"/>
      <point x="120.0" y="800.0" type="line" smooth="yes"/>
      <point x="379.0" y="800.0" type="line" smooth="yes"/>
    </contour>
  </outline>
</glyph>
<glyph name="U" format="2">
  <advance width="583"/>
  <unicode hex="0055"/>
  <outline>
    <contour>
      <point x="123.0" y="414.0" type="line" smooth="yes"/>
      <point x="89.0" y="452.0" type="line" smooth="yes"/>
      <point x="103.0" y="710.0" type="line" smooth="yes"/>
      <point x="140.0" y="748.0" type="line" smooth="yes"/>
      <point x="205.0" y="674.0" type="line" smooth="yes"/>
      <point x="195.0" y="488.0" type="line" smooth="yes"/>
    </contour>
    <contour>
      <point x="104.0" y="52.0" type="line" smooth="yes"/>
      <point x="70.0" y="90.0" type="line" smooth="yes"/>
      <point x="84.0" y="348.0" type="line" smooth="yes"/>
      <point x="121.0" y="386.0" type="line" smooth="yes"/>
      <point x="186.0" y="312.0" type="line" smooth="yes"/>
      <point x="176.0" y="126.0" type="line" smooth="yes"/>
    </contour>
    <contour>
      <point x="115.0" y="38.0" type="line" smooth="yes"/>
      <point x="188.0" y="112.0" type="line" smooth="yes"/>
      <point x="361.0" y="112.0" type="line" smooth="yes"/>
      <point x="426.0" y="38.0" type="line" smooth="yes"/>
      <point x="389.0" y="0.0" type="line" smooth="yes"/>
      <point x="148.0" y="0.0" type="line" smooth="yes"/>
    </contour>
    <contour>
      <point x="435.0" y="52.0" type="line" smooth="yes"/>
      <point x="370.0" y="126.0" type="line" smooth="yes"/>
      <point x="379.0" y="312.0" type="line" smooth="yes"/>
      <point x="452.0" y="386.0" type="line" smooth="yes"/>
      <point x="485.0" y="348.0" type="line" smooth="yes"/>
      <point x="472.0" y="90.0" type="line" smooth="yes"/>
    </contour>
    <contour>
      <point x="454.0" y="414.0" type="line" smooth="yes"/>
      <point x="389.0" y="488.0" type="line" smooth="yes"/>
      <point x="398.0" y="674.0" type="line" smooth="yes"/>
      <point x="471.0" y="748.0" type="line" smooth="yes"/>
      <point x="504.0" y="710.0" type="line" smooth="yes"/>
      <point x="491.0" y="452.0" type="line" smooth="yes"/>
    </contour>
  </outline>
</glyph>
<glyph name="W" format="2">
  <advance width="583"/>
  <unicode hex="0057"/>
  <outline>
    <contour>
      <point x="107.0" y="52.0" type="line" smooth="yes"/>
      <point x="67.0" y="90.0" type="line" smooth="yes"/>
      <point x="54.0" y="348.0" type="line" smooth="yes"/>
      <point x="90.0" y="386.0" type="line" smooth="yes"/>
      <point x="168.0" y="312.0" type="line" smooth="yes"/>
      <point x="177.0" y="126.0" type="line" smooth="yes"/>
    </contour>
    <contour>
      <point x="122.0" y="38.0" type="line" smooth="yes"/>
      <point x="192.0" y="112.0" type="line" smooth="yes"/>
      <point x="379.0" y="112.0" type="line" smooth="yes"/>
      <point x="457.0" y="38.0" type="line" smooth="yes"/>
      <point x="421.0" y="0.0" type="line" smooth="yes"/>
      <point x="162.0" y="0.0" type="line" smooth="yes"/>
    </contour>
    <contour>
      <point x="470.0" y="52.0" type="line" smooth="yes"/>
      <point x="392.0" y="126.0" type="line" smooth="yes"/>
      <point x="383.0" y="312.0" type="line" smooth="yes"/>
      <point x="453.0" y="386.0" type="line" smooth="yes"/>
      <point x="493.0" y="348.0" type="line" smooth="yes"/>
      <point x="506.0" y="90.0" type="line" smooth="yes"/>
    </contour>
    <contour>
      <point x="419.0" y="762.0" type="line" smooth="yes"/>
      <point x="349.0" y="688.0" type="line" smooth="yes"/>
      <point x="162.0" y="688.0" type="line" smooth="yes"/>
      <point x="84.0" y="762.0" type="line" smooth="yes"/>
      <point x="120.0" y="800.0" type="line" smooth="yes"/>
      <point x="379.0" y="800.0" type="line" smooth="yes"/>
    </contour>
  </outline>
</glyph>
<glyph name="asciicircum" format="2">
  <advance width="583"/>
  <unicode hex="005E"/>
  <outline>
    <contour>
      <point x="88.0" y="414.0" type="line" smooth="yes"/>
      <point x="48.0" y="452.0" type="line" smooth="yes"/>
      <point x="35.0" y="710.0" type="line" smooth="yes"/>
      <point x="71.0" y="748.0" type="line" smooth="yes"/>
      <point x="149.0" y="674.0" type="line" smooth="yes"/>
      <point x="158.0" y="488.0" type="line" smooth="yes"/>
    </contour>
    <contour>
      <point x="451.0" y="414.0" type="line" smooth="yes"/>
      <point x="373.0" y="488.0" type="line" smooth="yes"/>
      <point x="364.0" y="674.0" type="line" smooth="yes"/>
      <point x="434.0" y="748.0" type="line" smooth="yes"/>
      <point x="474.0" y="710.0" type="line" smooth="yes"/>
      <point x="487.0" y="452.0" type="line" smooth="yes"/>
    </contour>
    <contour>
      <point x="419.0" y="762.0" type="line" smooth="yes"/>
      <point x="349.0" y="688.0" type="line" smooth="yes"/>
      <point x="162.0" y="688.0" type="line" smooth="yes"/>
      <point x="84.0" y="762.0" type="line" smooth="yes"/>
      <point x="120.0" y="800.0" type="line" smooth="yes"/>
      <point x="379.0" y="800.0" type="line" smooth="yes"/>
    </contour>
  </outline>
</glyph>
<glyph name="i" format="2">
  <advance width="583"/>
  <unicode hex="0069"/>
  <outline>
    <contour>
      <point x="470.0" y="52.0" type="line" smooth="yes"/>
      <point x="392.0" y="126.0" type="line" smooth="yes"/>
      <point x="383.0" y="312.0" type="line" smooth="yes"/>
      <point x="453.0" y="386.0" type="line" smooth="yes"/>
      <point x="493.0" y="348.0" type="line" smooth="yes"/>
      <point x="506.0" y="90.0" type="line" smooth="yes"/>
    </contour>
  </outline>
</glyph>
<glyph name="n" format="2">
  <advance width="583"/>
  <unicode hex="006E"/>
  <outline>
    <contour>
      <point x="134.0" y="400.0" type="line" smooth="yes"/>
      <point x="189.0" y="456.0" type="line" smooth="yes"/>
      <point x="396.0" y="456.0" type="line" smooth="yes"/>
      <point x="445.0" y="400.0" type="line" smooth="yes"/>
      <point x="390.0" y="344.0" type="line" smooth="yes"/>
      <point x="183.0" y="344.0" type="line" smooth="yes"/>
    </contour>
    <contour>
      <point x="104.0" y="52.0" type="line" smooth="yes"/>
      <point x="70.0" y="90.0" type="line" smooth="yes"/>
      <point x="84.0" y="348.0" type="line" smooth="yes"/>
      <point x="121.0" y="386.0" type="line" smooth="yes"/>
      <point x="186.0" y="312.0" type="line" smooth="yes"/>
      <point x="176.0" y="126.0" type="line" smooth="yes"/>
    </contour>
    <contour>
      <point x="435.0" y="52.0" type="line" smooth="yes"/>
      <point x="370.0" y="126.0" type="line" smooth="yes"/>
      <point x="379.0" y="312.0" type="line" smooth="yes"/>
      <point x="452.0" y="386.0" type="line" smooth="yes"/>
      <point x="485.0" y="348.0" type="line" smooth="yes"/>
      <point x="472.0" y="90.0" type="line" smooth="yes"/>
    </contour>
  </outline>
</glyph>
<glyph name="r" format="2">
  <advance width="583"/>
  <unicode hex="0072"/>
  <outline>
    <contour>
      <point x="103.0" y="400.0" type="line" smooth="yes"/>
      <point x="156.0" y="456.0" type="line" smooth="yes"/>
      <point x="379.0" y="456.0" type="line" smooth="yes"/>
      <point x="438.0" y="400.0" type="line" smooth="yes"/>
      <point x="385.0" y="344.0" type="line" smooth="yes"/>
      <point x="162.0" y="344.0" type="line" smooth="yes"/>
    </contour>
    <contour>
      <point x="107.0" y="52.0" type="line" smooth="yes"/>
      <point x="67.0" y="90.0" type="line" smooth="yes"/>
      <point x="54.0" y="348.0" type="line" smooth="yes"/>
      <point x="90.0" y="386.0" type="line" smooth="yes"/>
      <point x="168.0" y="312.0" type="line" smooth="yes"/>
      <point x="177.0" y="126.0" type="line" smooth="yes"/>
    </contour>
  </outline>
</glyph>
<glyph name="u" format="2">
  <advance width="583"/>
  <unicode hex="0075"/>
  <outline>
    <contour>
      <point x="104.0" y="52.0" type="line" smooth="yes"/>
      <point x="70.0" y="90.0" type="line" smooth="yes"/>
      <point x="84.0" y="348.0" type="line" smooth="yes"/>
      <point x="121.0" y="386.0" type="line" smooth="yes"/>
      <point x="186.0" y="312.0" type="line" smooth="yes"/>
      <point x="176.0" y="126.0" type="line" smooth="yes"/>
    </contour>
    <contour>
      <point x="115.0" y="38.0" type="line" smooth="yes"/>
      <point x="188.0" y="112.0" type="line" smooth="yes"/>
      <point x="361.0" y="112.0" type="line" smooth="yes"/>
      <point x="426.0" y="38.0" type="line" smooth="yes"/>
      <point x="389.0" y="0.0" type="line" smooth="yes"/>
      <point x="148.0" y="0.0" type="line" smooth="yes"/>
    </contour>
    <contour>
      <point x="435.0" y="52.0" type="line" smooth="yes"/>
      <point x="370.0" y="126.0" type="line" smooth="yes"/>
      <point x="379.0" y="312.0" type="line" smooth="yes"/>
      <point x="452.0" y="386.0" type="line" smooth="yes"/>
      <point x="485.0" y="348.0" type="line" smooth="yes"/>
      <point x="472.0" y="90.0" type="line" smooth="yes"/>
    </contour>
  </outline>
</glyph>
<glyph name="asciitilde" format="2">
  <advance width="583"/>
  <unicode hex="007E"/>
  <outline>
    <contour>
      <point x="509.92578125" y="762.0" type="line" smooth="yes"/>
      <point x="436.92578125" y="688.0" type="line" smooth="yes"/>
      <point x="263.92578125" y="688.0" type="line" smooth="yes"/>
      <point x="198.92578125" y="762.0" type="line" smooth="yes"/>
      <point x="235.92578125" y="800.0" type="line" smooth="yes"/>
      <point x="476.92578125" y="800.0" type="line" smooth="yes"/>
    </contour>
  </outline>
</glyph>
<glyph name="logicalnot" format="2">
  <advance width="583"/>
  <unicode hex="00AC"/>
  <outline>
    <contour>
      <point x="103.0" y="400.0" type="line" smooth="yes"/>
      <point x="156.0" y="456.0" type="line" smooth="yes"/>
      <point x="379.0" y="456.0" type="line" smooth="yes"/>
      <point x="438.0" y="400.0" type="line" smooth="yes"/>
      <point x="385.0" y="344.0" type="line" smooth="yes"/>
      <point x="162.0" y="344.0" type="line" smooth="yes"/>
    </contour>
    <contour>
      <point x="470.0" y="52.0" type="line" smooth="yes"/>
      <point x="392.0" y="126.0" type="line" smooth="yes"/>
      <point x="383.0" y="312.0" type="line" smooth="yes"/>
      <point x="453.0" y="386.0" type="line" smooth="yes"/>
      <point x="493.0" y="348.0" type="line" smooth="yes"/>
      <point x="506.0" y="90.0" type="line" smooth="yes"/>
    </contour>
  </outline>
</glyph>
<glyph name="quoteleft" format="2">
  <advance width="583"/>
  <unicode hex="2018"/>
  <outline>
    <contour>
      <point x="495.0" y="414.0" type="line" smooth="yes"/>
      <point x="425.0" y="488.0" type="line" smooth="yes"/>
      <point x="434.0" y="674.0" type="line" smooth="yes"/>
      <point x="512.0" y="748.0" type="line" smooth="yes"/>
      <point x="548.0" y="710.0" type="line" smooth="yes"/>
      <point x="535.0" y="452.0" type="line" smooth="yes"/>
    </contour>
  </outline>
</glyph>
<glyph name="ellipsis" format="2">
  <advance width="583"/>
  <unicode hex="2026"/>
  <outline>
    <contour>
      <point x="513.0" y="0.0" type="curve" smooth="yes"/>
      <point x="515.0" y="39.0"/>
      <point x="548.0" y="70.0"/>
      <point x="587.0" y="70.0" type="curve" smooth="yes"/>
      <point x="626.0" y="70.0"/>
      <point x="655.0" y="39.0"/>
      <point x="653.0" y="0.0" type="curve" smooth="yes"/>
      <point x="651.0" y="-39.0"/>
      <point x="618.0" y="-70.0"/>
      <point x="579.0" y="-70.0" type="curve" smooth="yes"/>
      <point x="540.0" y="-70.0"/>
      <point x="511.0" y="-39.0"/>
    </contour>
    <contour>
      <point x="113.0" y="52.0" type="line" smooth="yes"/>
      <point x="77.0" y="90.0" type="line" smooth="yes"/>
      <point x="90.0" y="348.0" type="line" smooth="yes"/>
      <point x="130.0" y="386.0" type="line" smooth="yes"/>
      <point x="200.0" y="312.0" type="line" smooth="yes"/>
      <point x="191.0" y="126.0" type="line" smooth="yes"/>
    </contour>
    <contour>
      <point x="476.0" y="52.0" type="line" smooth="yes"/>
      <point x="406.0" y="126.0" type="line" smooth="yes"/>
      <point x="415.0" y="312.0" type="line" smooth="yes"/>
      <point x="493.0" y="386.0" type="line" smooth="yes"/>
      <point x="529.0" y="348.0" type="line" smooth="yes"/>
      <point x="516.0" y="90.0" type="line" smooth="yes"/>
    </contour>
  </outline>
</glyph>
<glyph name="unie650" format="2">
  <advance width="583"/>
  <unicode hex="E650"/>
  <outline>
    <contour>
      <point x="88.0" y="414.0" type="line" smooth="yes"/>
      <point x="48.0" y="452.0" type="line" smooth="yes"/>
      <point x="35.0" y="710.0" type="line" smooth="yes"/>
      <point x="71.0" y="748.0" type="line" smooth="yes"/>
      <point x="149.0" y="674.0" type="line" smooth="yes"/>
      <point x="158.0" y="488.0" type="line" smooth="yes"/>
    </contour>
    <contour>
      <point x="470.0" y="52.0" type="line" smooth="yes"/>
      <point x="392.0" y="126.0" type="line" smooth="yes"/>
      <point x="383.0" y="312.0" type="line" smooth="yes"/>
      <point x="453.0" y="386.0" type="line" smooth="yes"/>
      <point x="493.0" y="348.0" type="line" smooth="yes"/>
      <point x="506.0" y="90.0" type="line" smooth="yes"/>
    </contour>
    <contour>
      <point x="451.0" y="414.0" type="line" smooth="yes"/>
      <point x="373.0" y="488.0" type="line" smooth="yes"/>
      <point x="364.0" y="674.0" type="line" smooth="yes"/>
      <point x="434.0" y="748.0" type="line" smooth="yes"/>
      <point x="474.0" y="710.0" type="line" smooth="yes"/>
      <point x="487.0" y="452.0" type="line" smooth="yes"/>
    </contour>
    <contour>
      <point x="419.0" y="762.0" type="line" smooth="yes"/>
      <point x="349.0" y="688.0" type="line" smooth="yes"/>
      <point x="162.0" y="688.0" type="line" smooth="yes"/>
      <point x="84.0" y="762.0" type="line" smooth="yes"/>
      <point x="120.0" y="800.0" type="line" smooth="yes"/>
      <point x="379.0" y="800.0" type="line" smooth="yes"/>
    </contour>
  </outline>
</glyph>
<glyph name="unie655" format="2">
  <advance width="583"/>
  <unicode hex="E655"/>
  <outline>
    <contour>
      <point x="134.0" y="400.0" type="line" smooth="yes"/>
      <point x="189.0" y="456.0" type="line" smooth="yes"/>
      <point x="396.0" y="456.0" type="line" smooth="yes"/>
      <point x="445.0" y="400.0" type="line" smooth="yes"/>
      <point x="390.0" y="344.0" type="line" smooth="yes"/>
      <point x="183.0" y="344.0" type="line" smooth="yes"/>
    </contour>
    <contour>
      <point x="123.0" y="414.0" type="line" smooth="yes"/>
      <point x="89.0" y="452.0" type="line" smooth="yes"/>
      <point x="103.0" y="710.0" type="line" smooth="yes"/>
      <point x="140.0" y="748.0" type="line" smooth="yes"/>
      <point x="205.0" y="674.0" type="line" smooth="yes"/>
      <point x="195.0" y="488.0" type="line" smooth="yes"/>
    </contour>
    <contour>
      <point x="435.0" y="52.0" type="line" smooth="yes"/>
      <point x="370.0" y="126.0" type="line" smooth="yes"/>
      <point x="379.0" y="312.0" type="line" smooth="yes"/>
      <point x="452.0" y="386.0" type="line" smooth="yes"/>
      <point x="485.0" y="348.0" type="line" smooth="yes"/>
      <point x="472.0" y="90.0" type="line" smooth="yes"/>
    </contour>
    <contour>
      <point x="464.0" y="762.0" type="line" smooth="yes"/>
      <point x="392.0" y="688.0" type="line" smooth="yes"/>
      <point x="218.0" y="688.0" type="line" smooth="yes"/>
      <point x="153.0" y="762.0" type="line" smooth="yes"/>
      <point x="190.0" y="800.0" type="line" smooth="yes"/>
      <point x="431.0" y="800.0" type="line" smooth="yes"/>
    </contour>
  </outline>
</glyph>
<glyph name="unie662" format="2">
  <advance width="583"/>
  <unicode hex="E662"/>
  <outline>
    <contour>
      <point x="123.0" y="414.0" type="line" smooth="yes"/>
      <point x="89.0" y="452.0" type="line" smooth="yes"/>
      <point x="103.0" y="710.0" type="line" smooth="yes"/>
      <point x="140.0" y="748.0" type="line" smooth="yes"/>
      <point x="205.0" y="674.0" type="line" smooth="yes"/>
      <point x="195.0" y="488.0" type="line" smooth="yes"/>
    </contour>
    <contour>
      <point x="104.0" y="52.0" type="line" smooth="yes"/>
      <point x="70.0" y="90.0" type="line" smooth="yes"/>
      <point x="84.0" y="348.0" type="line" smooth="yes"/>
      <point x="121.0" y="386.0" type="line" smooth="yes"/>
      <point x="186.0" y="312.0" type="line" smooth="yes"/>
      <point x="176.0" y="126.0" type="line" smooth="yes"/>
    </contour>
    <contour>
      <point x="509.92578125" y="762.0" type="line" smooth="yes"/>
      <point x="436.92578125" y="688.0" type="line" smooth="yes"/>
      <point x="263.92578125" y="688.0" type="line" smooth="yes"/>
      <point x="198.92578125" y="762.0" type="line" smooth="yes"/>
      <point x="235.92578125" y="800.0" type="line" smooth="yes"/>
      <point x="476.92578125" y="800.0" type="line" smooth="yes"/>
    </contour>
  </outline>
</glyph>
<glyph name="unie668" format="2">
  <advance width="583"/>
  <unicode hex="E668"/>
  <outline>
    <contour>
      <point x="103.0" y="400.0" type="line" smooth="yes"/>
      <point x="156.0" y="456.0" type="line" smooth="yes"/>
      <point x="379.0" y="456.0" type="line" smooth="yes"/>
      <point x="438.0" y="400.0" type="line" smooth="yes"/>
      <point x="385.0" y="344.0" type="line" smooth="yes"/>
      <point x="162.0" y="344.0" type="line" smooth="yes"/>
    </contour>
    <contour>
      <point x="122.0" y="38.0" type="line" smooth="yes"/>
      <point x="192.0" y="112.0" type="line" smooth="yes"/>
      <point x="379.0" y="112.0" type="line" smooth="yes"/>
      <point x="457.0" y="38.0" type="line" smooth="yes"/>
      <point x="421.0" y="0.0" type="line" smooth="yes"/>
      <point x="162.0" y="0.0" type="line" smooth="yes"/>
    </contour>
    <contour>
      <point x="470.0" y="52.0" type="line" smooth="yes"/>
      <point x="392.0" y="126.0" type="line" smooth="yes"/>
      <point x="383.0" y="312.0" type="line" smooth="yes"/>
      <point x="453.0" y="386.0" type="line" smooth="yes"/>
      <point x="493.0" y="348.0" type="line" smooth="yes"/>
      <point x="506.0" y="90.0" type="line" smooth="yes"/>
    </contour>
  </outline>
</glyph>
<glyph name="unie671" format="2">
  <advance width="583"/>
  <unicode hex="E671"/>
  <outline>
    <contour>
      <point x="104.0" y="52.0" type="line" smooth="yes"/>
      <point x="70.0" y="90.0" type="line" smooth="yes"/>
      <point x="84.0" y="348.0" type="line" smooth="yes"/>
      <point x="121.0" y="386.0" type="line" smooth="yes"/>
      <point x="186.0" y="312.0" type="line" smooth="yes"/>
      <point x="176.0" y="126.0" type="line" smooth="yes"/>
    </contour>
    <contour>
      <point x="435.0" y="52.0" type="line" smooth="yes"/>
      <point x="370.0" y="126.0" type="line" smooth="yes"/>
      <point x="379.0" y="312.0" type="line" smooth="yes"/>
      <point x="452.0" y="386.0" type="line" smooth="yes"/>
      <point x="485.0" y="348.0" type="line" smooth="yes"/>
      <point x="472.0" y="90.0" type="line" smooth="yes"/>
    </contour>
  </outline>
</glyph>
<glyph name="unie674" format="2">
  <advance width="583"/>
  <unicode hex="E674"/>
  <outline>
    <contour>
      <point x="126.0" y="38.0" type="line" smooth="yes"/>
      <point x="204.0" y="112.0" type="line" smooth="yes"/>
      <point x="391.0" y="112.0" type="line" smooth="yes"/>
      <point x="461.0" y="38.0" type="line" smooth="yes"/>
      <point x="421.0" y="0.0" type="line" smooth="yes"/>
      <point x="162.0" y="0.0" type="line" smooth="yes"/>
    </contour>
    <contour>
      <point x="476.0" y="52.0" type="line" smooth="yes"/>
      <point x="406.0" y="126.0" type="line" smooth="yes"/>
      <point x="415.0" y="312.0" type="line" smooth="yes"/>
      <point x="493.0" y="386.0" type="line" smooth="yes"/>
      <point x="529.0" y="348.0" type="line" smooth="yes"/>
      <point x="516.0" y="90.0" type="line" smooth="yes"/>
    </contour>
  </outline>
</glyph>
<glyph name="u1047e" format="2">
  <advance width="583"/>
  <unicode hex="1047E"/>
  <outline>
    <contour>
      <point x="134.0" y="400.0" type="line" smooth="yes"/>
      <point x="189.0" y="456.0" type="line" smooth="yes"/>
      <point x="396.0" y="456.0" type="line" smooth="yes"/>
      <point x="445.0" y="400.0" type="line" smooth="yes"/>
      <point x="390.0" y="344.0" type="line" smooth="yes"/>
      <point x="183.0" y="344.0" type="line" smooth="yes"/>
    </contour>
    <contour>
      <point x="104.0" y="52.0" type="line" smooth="yes"/>
      <point x="70.0" y="90.0" type="line" smooth="yes"/>
      <point x="84.0" y="348.0" type="line" smooth="yes"/>
      <point x="121.0" y="386.0" type="line" smooth="yes"/>
      <point x="186.0" y="312.0" type="line" smooth="yes"/>
      <point x="176.0" y="126.0" type="line" smooth="yes"/>
    </contour>
    <contour>
      <point x="509.92578125" y="762.0" type="line" smooth="yes"/>
      <point x="436.92578125" y="688.0" type="line" smooth="yes"/>
      <point x="263.92578125" y="688.0" type="line" smooth="yes"/>
      <point x="198.92578125" y="762.0" type="line" smooth="yes"/>
      <point x="235.92578125" y="800.0" type="line" smooth="yes"/>
      <point x="476.92578125" y="800.0" type="line" smooth="yes"/>
    </contour>
  </outline>
</glyph>
<glyph name=".notdef" format="2">
  <advance width="583"/>
  <outline>
    <contour>
      <point x="184.0" y="112.0" type="line" smooth="yes"/>
      <point x="398.0" y="112.0" type="line" smooth="yes"/>
      <point x="398.0" y="688.0" type="line" smooth="yes"/>
      <point x="184.0" y="688.0" type="line" smooth="yes"/>
    </contour>
    <contour>
      <point x="72.0" y="0.0" type="line" smooth="yes"/>
      <point x="72.0" y="800.0" type="line" smooth="yes"/>
      <point x="510.0" y="800.0" type="line" smooth="yes"/>
      <point x="510.0" y="0.0" type="line" smooth="yes"/>
    </contour>
  </outline>
</glyph>
